<svg height="512" viewBox="0 0 64 64" width="512" xmlns="http://www.w3.org/2000/svg"><g id="clip_office_equipment_workspace_job_work" data-name="clip office equipment workspace job work"><path d="m56.725 42.1 4.275 16.4v1h-5.613a5.613 5.613 0 0 0 -11.226 0h-24.322a5.613 5.613 0 0 0 -11.226 0h-5.613v-1l4.275-16.4a4.391 4.391 0 0 0 -4.275-5.439v-6.061h58v6.059a4.391 4.391 0 0 0 -4.275 5.441z" fill="#4370ff"/><path d="m61 38.661h2v-10.061h-19.758l-2.642-7.734a3.048 3.048 0 0 1 .729-3.042c5.228-5.619 2.587-15.324-9.329-15.324-12 0-14.5 9.76-9.33 15.324a3.047 3.047 0 0 1 .73 3.042l-2.642 7.734h-11.758v4h10.391l-6.65 19.464a7.623 7.623 0 0 0 -5.86 5.436h-1.553l3.889-14.925a6.388 6.388 0 0 0 -4.217-7.598v-6.377h-4v10.061c.15.047 5.229-.669 4.34 2.93l-4.34 16.656v3.253h9.613v-2a3.613 3.613 0 0 1 7.226 0v2h28.322v-2a3.613 3.613 0 0 1 7.226 0v2h9.613v-3.253l-4.336-16.642a2.39 2.39 0 0 1 2.336-2.944zm-29-32.161c8.169 0 9.4 5.374 6.4 8.6a7.041 7.041 0 0 0 -1.586 7.059l2.2 6.443h-14.03l2.2-6.443a7.039 7.039 0 0 0 -1.584-7.059c-2.988-3.212-1.8-8.6 6.4-8.6zm10.429 51h-20.858a7.628 7.628 0 0 0 -4.712-5.114l6.759-19.786h16.764l6.759 19.784a7.628 7.628 0 0 0 -4.712 5.116zm16.571-22.523a6.388 6.388 0 0 0 -4.217 7.6l3.889 14.923h-1.553a7.623 7.623 0 0 0 -5.86-5.434l-6.65-19.466h14.391z"/></g></svg>